PathFileType	4	(X/Y/Z)	C:\Users\WrightLab\Desktop\Jo\P1_boxCal31.trc
DataRate	CameraRate	NumFrames	NumMarkers	Units	OrigDataRate	OrigDataStartFrame	OrigNumFrames
100.00	100.00	       34	19	mm	100.00	1	       740
Frame#	Time	Headset_Front			Headset_Back			Headset_Left			Headset_Right			Left_Shoulder			Right_Shoulder			Sternum			C7			Left Elbow			Right Elbow			Left Wrist			Right Wrist			Left ASIS			Right ASIS			S2			Left Knee			Right Knee			Left Ankle			Right Ankle			
		X1	Y1	Z1	X2	Y2	Z2	X3	Y3	Z3	X4	Y4	Z4	X5	Y5	Z5	X6	Y6	Z6	X7	Y7	Z7	X8	Y8	Z8	X9	Y9	Z9	X10	Y10	Z10	X11	Y11	Z11	X12	Y12	Z12	X13	Y13	Z13	X14	Y14	Z14	X15	Y15	Z15	X16	Y16	Z16	X17	Y17	Z17	X18	Y18	Z18	X19	Y19	Z19	

1	0.000																															32.60215	723.30621	-1522.26563				-165.28607	862.83325	-1423.90161							-88.40111	417.63541	-1580.47656				-114.42683	49.01585	-1612.37378				
2	0.010																															32.63577	723.91321	-1521.70776				-165.35802	864.01056	-1422.76575							-88.29987	417.64615	-1580.23206				-114.50703	48.91932	-1612.66614				
3	0.020																															32.83381	724.39972	-1520.64685				-164.06400	863.75299	-1426.53088							-88.47337	417.03406	-1579.36279				-114.50703	48.91932	-1612.66614				
4	0.030																															32.04984	724.72162	-1518.69373				-164.00146	864.03821	-1426.16821							-87.78419	417.19479	-1579.94092				-114.50703	48.91932	-1612.66614				
5	0.040																															33.03997	725.44818	-1518.47717				-163.39142	864.99701	-1426.97827							-86.97331	417.05215	-1579.83557				-114.50703	48.91932	-1612.66614				
6	0.050																															33.20750	725.91962	-1517.37866				-163.22760	865.72583	-1426.02148							-86.72593	417.20901	-1579.09546				-114.42683	49.01585	-1612.37378				
7	0.060																															32.16874	726.90149	-1515.98413				-162.97765	867.13965	-1425.69202							-85.95211	417.53610	-1579.18982				-114.50703	48.91932	-1612.66614				
8	0.070																															34.00916	728.04584	-1517.18262				-162.87982	867.53009	-1425.11328							-85.77015	417.61774	-1578.72229				-114.50703	48.91932	-1612.66614				
9	0.080																															33.31125	728.47620	-1514.88440				-162.76988	867.88098	-1424.45068							-85.71417	417.75876	-1578.31421				-114.26360	48.96608	-1612.30530				
10	0.090																															34.70979	730.48749	-1517.20642				-161.78688	868.13721	-1426.57874							-85.39980	418.75351	-1579.56104				-114.26360	48.96608	-1612.30530				
11	0.100																															35.32886	731.22827	-1516.10425				-160.67812	868.35217	-1428.86707							-85.09319	418.94946	-1578.81909	-427.76556	407.47501	-1565.34155	-113.04248	49.53685	-1613.13379				
12	0.110																															35.85781	731.91132	-1516.06628				-159.91502	868.74603	-1429.35156							-84.37399	418.41095	-1577.74402	-426.85645	408.02853	-1561.53601	-112.93310	49.41503	-1613.27686				
13	0.120																															36.57922	732.87946	-1515.16382				-159.44337	869.65302	-1426.42041							-84.33817	418.53238	-1577.41150	-426.00650	409.39615	-1557.19690	-112.93310	49.41503	-1613.27686				
14	0.130																															37.12037	733.81085	-1514.80371				-158.97939	870.53418	-1423.53516							-83.89368	418.57901	-1576.62073	-425.38046	410.47336	-1554.01672	-112.80419	49.46934	-1613.02234				
15	0.140																															37.55574	734.49243	-1515.38245				-158.77528	871.86749	-1421.27356							-83.76919	418.66425	-1576.23450	-424.39532	410.36267	-1553.37695	-112.93310	49.41503	-1613.27686				
16	0.150																															38.24197	736.04901	-1514.93347				-157.53990	873.02582	-1422.38403							-83.00246	419.33975	-1576.49561	-423.14688	409.72467	-1557.19788	-112.20280	48.85525	-1613.16943				
17	0.160																															38.66398	736.85883	-1514.65857				-156.49585	873.58453	-1422.91333							-82.38074	418.65384	-1575.93274	-422.99612	409.95786	-1556.42419	-111.77157	48.85209	-1612.71338				
18	0.170																															38.57992	736.97192	-1513.52087				-156.04716	875.09778	-1421.94910							-82.38074	418.65384	-1575.93274	-422.59558	409.11011	-1556.74451	-111.92484	48.94867	-1612.67114				
19	0.180																															39.63592	737.78052	-1512.90015				-155.06274	875.24127	-1423.15674							-81.92171	418.57358	-1575.85193	-422.51346	409.17361	-1556.30859	-112.07528	48.91454	-1612.90564				
20	0.190																															40.22232	739.26794	-1513.98816				-154.94405	875.78040	-1422.45544							-81.82423	418.53305	-1575.79480	-422.42938	409.23868	-1555.86218	-111.77157	48.85209	-1612.71338				
21	0.200																															39.86475	739.74237	-1513.27966				-154.37978	876.32666	-1423.50513							-80.31431	419.35959	-1576.69434	-422.06448	408.30139	-1556.35693	-112.76919	49.34406	-1613.25293				
22	0.210																															40.18388	740.40302	-1512.71033				-153.08585	876.05518	-1427.29797							-80.31431	419.35959	-1576.69434	-421.70715	408.70901	-1554.48914	-112.76919	49.34406	-1613.25293				
23	0.220																															41.48781	741.76843	-1513.89624				-152.57936	876.17407	-1428.27039							-79.69375	420.18457	-1577.79065	-420.74011	408.19431	-1554.75745	-112.93310	49.41503	-1613.27686				
24	0.230																															41.74555	742.77148	-1514.59509				-152.42146	876.51874	-1427.28735							-79.69375	420.18457	-1577.79065	-420.26926	408.82553	-1552.31470	-112.76919	49.34406	-1613.25293				
25	0.240																															42.18174	743.99017	-1515.58655				-151.27916	877.21161	-1428.95178							-79.69375	420.18457	-1577.79065	-419.14346	409.16254	-1551.37512	-113.00182	49.31152	-1613.57214				
26	0.250																															41.87061	744.25421	-1515.18591				-151.00136	877.73798	-1427.20959							-79.72122	420.10886	-1578.00623	-418.59854	409.93295	-1548.55432	-112.94186	49.16081	-1613.83020				
27	0.260																															41.98346	744.60895	-1514.22205				-149.83163	878.22058	-1426.90955							-79.72122	420.10886	-1578.00623	-418.10669	410.63049	-1546.00842	-112.58549	50.41176	-1614.82642				
28	0.270																															43.10593	744.96240	-1515.19385				-149.25874	879.64191	-1425.11157							-79.78430	420.05188	-1578.23364	-417.79077	411.01279	-1544.35742	-112.53013	50.26248	-1615.08655				
29	0.280																															43.59777	745.19568	-1515.25867				-148.19214	879.71777	-1425.78149							-79.78430	420.05188	-1578.23364	-417.33902	410.04254	-1545.43408	-112.53013	50.26248	-1615.08655				
30	0.290																															43.99282	745.49341	-1515.44299				-147.79559	880.69397	-1423.31799							-79.51909	420.83511	-1579.35974	-417.09711	409.43372	-1544.77600	-112.53013	50.26248	-1615.08655				
31	0.300																															44.53601	745.84802	-1516.11548				-147.06148	881.65741	-1423.31409							-79.62029	420.85147	-1579.47791	-416.92673	409.54047	-1543.86145	-112.53013	50.26248	-1615.08655				
32	0.310																															44.64569	746.53912	-1517.21582				-145.14009	880.94940	-1428.36572							-79.55687	420.76340	-1579.58215	-416.52811	407.73401	-1543.41357	-112.64797	50.19370	-1615.36023				
33	0.320																															44.72943	747.06561	-1518.15930				-144.91742	881.65906	-1426.99707							-79.55687	420.76340	-1579.58215	-416.55136	407.45975	-1541.69702	-112.64797	50.19370	-1615.36023				
34	0.330																															45.22318	747.72156	-1519.54956				-144.73260	882.26477	-1425.86206							-79.62280	420.67657	-1579.88245	-416.24777	407.82510	-1540.11047	-112.64797	50.19370	-1615.36023				
